HIERARCHY
ROOT Hips
{
	OFFSET 0.00000 0.00000 0.00000
	CHANNELS 6 Xposition Yposition Zposition Zrotation Yrotation Xrotation 
	JOINT LHipJoint
	{
		OFFSET 0 0 0
		CHANNELS 3 Zrotation Yrotation Xrotation
		JOINT LeftHip
		{
			OFFSET 1.44960 -1.75505 0.85172
			CHANNELS 3 Zrotation Yrotation Xrotation
			JOINT LeftKnee
			{
				OFFSET 2.40573 -6.60971 0.00000
				CHANNELS 3 Zrotation Yrotation Xrotation
				JOINT LeftAnkle
				{
					OFFSET 2.58773 -7.10974 0.00000
					CHANNELS 3 Zrotation Yrotation Xrotation
					JOINT LeftToe
					{
						OFFSET 0.18252 -0.50147 1.77316
						CHANNELS 3 Zrotation Yrotation Xrotation
						End Site
						{
							OFFSET 0.00000 -0.00000 0.92990
						}
					}
				}
			}
		}
	}
	JOINT RHipJoint
	{
		OFFSET 0 0 0
		CHANNELS 3 Zrotation Yrotation Xrotation
		JOINT RightHip
		{
			OFFSET -1.40744 -1.75505 0.85172
			CHANNELS 3 Zrotation Yrotation Xrotation
			JOINT RightKnee
			{
				OFFSET -2.43714 -6.69600 0.00000
				CHANNELS 3 Zrotation Yrotation Xrotation
				JOINT RightAnkle
				{
					OFFSET -2.51650 -6.91404 0.00000
					CHANNELS 3 Zrotation Yrotation Xrotation
					JOINT RightToe
					{
						OFFSET -0.25383 -0.69740 1.96384
						CHANNELS 3 Zrotation Yrotation Xrotation
						End Site
						{
							OFFSET -0.00000 -0.00000 1.04244
						}
					}
				}
			}
		}
	}
	JOINT lowerback
	{
		OFFSET 0 0 0
		CHANNELS 3 Zrotation Yrotation Xrotation
		JOINT Chest
		{
			OFFSET 0.00579 2.14458 -0.24367
			CHANNELS 3 Zrotation Yrotation Xrotation
			JOINT Chest2
			{
				OFFSET 0.05899 2.16316 -0.04515
				CHANNELS 3 Zrotation Yrotation Xrotation
				JOINT lowerneck
				{
					OFFSET 0 0 0
					CHANNELS 3 Zrotation Yrotation Xrotation
					JOINT Neck
					{
						OFFSET -0.01650 1.59577 0.24841
						CHANNELS 3 Zrotation Yrotation Xrotation
						JOINT Head
						{
							OFFSET -0.01016 1.63072 -0.17782
							CHANNELS 3 Zrotation Yrotation Xrotation
							End Site
							{
								OFFSET -0.00250 1.64111 -0.08717
							}
						}
					}
				}
				JOINT LeftCollar
				{
					OFFSET 0 0 0
					CHANNELS 3 Zrotation Yrotation Xrotation
					JOINT LeftShoulder
					{
						OFFSET 3.17745 0.95174 -0.45729
CHANNELS 3 Zrotation Xrotation Yrotation
						JOINT LeftElbow
						{
OFFSET 0 -4.934850 0.000000
CHANNELS 3 Zrotation Xrotation Yrotation
							JOINT LeftWrist
							{
OFFSET 0 -3.417190 -0.000000
CHANNELS 3 Zrotation Xrotation Yrotation
								JOINT lhand
								{
									OFFSET 0 0 0
CHANNELS 3 Zrotation Xrotation Yrotation
									JOINT LFingers
									{
OFFSET 0 -0.624100 -0.000000
CHANNELS 3 Zrotation Xrotation Yrotation
										End Site
										{
OFFSET 0 -0.503170 -0.000000
										}
									}
								}
								JOINT LThumb
								{
OFFSET 0 0.000000 0.000000
CHANNELS 3 Zrotation Xrotation Yrotation
									End Site
									{
OFFSET 0 -0.510850 0.510850
									}
								}
							}
						}
					}
				}
				JOINT RightCollar
				{
					OFFSET 0 0 0
					CHANNELS 3 Zrotation Yrotation Xrotation
					JOINT RightShoulder
					{
						OFFSET -2.87924 1.13038 -0.75204
CHANNELS 3 Zrotation Xrotation Yrotation
						JOINT RightElbow
						{
OFFSET 0 -5.220340 0.000000
CHANNELS 3 Zrotation Xrotation Yrotation
							JOINT RightWrist
							{
OFFSET 0 -3.418090 -0.000000
CHANNELS 3 Zrotation Xrotation Yrotation
								JOINT rhand
								{
									OFFSET 0 0 0
CHANNELS 3 Zrotation Xrotation Yrotation
									JOINT RFingers
									{
OFFSET 0 -0.775340 -0.000000
CHANNELS 3 Zrotation Xrotation Yrotation
										End Site
										{
OFFSET 0 -0.625100 -0.000000
										}
									}
								}
								JOINT RThumb
								{
OFFSET 0 0.000000 0.000000
CHANNELS 3 Zrotation Xrotation Yrotation
									End Site
									{
OFFSET 0 -0.634640 0.634640
									}
								}
							}
						}
					}
				}
			}
		}
	}
}
MOTION
Frames: 5
Frame Time: 0.008333333333333333
1.174900 17.354400 -33.564600 0.438600 4.431900 3.624900 0.000000 0.000000 0.000000 -24.509200 -8.305900 -9.326100 2.331200 9.524400 27.449900 1.162300 -9.993200 -19.465600 0.082200 1.849300 5.089500 0.000000 0.000000 0.000000 19.275100 -1.291400 -18.400200 -4.701900 -13.040000 39.518300 -1.627300 5.293200 -22.988400 -0.007900 -0.572400 1.573000 -5.393900 -3.298200 5.441000 -1.783400 -4.744300 0.750600 1.496700 -2.328100 -1.984600 -2.826500 -9.215500 -9.358200 11.447900 -13.423000 9.026600 2.936300 -6.028900 5.242400 -0.000000 0.000000 0.000000 7.455600 5.824900 -17.219400 17.705000 -27.777700 4.410900 4.854000 7.689100 -41.866900 0.000000 0.000000 0.000000 -7.125000 0.000000 0.000000 -43.238900 67.122000 24.864900 -0.000000 0.000000 0.000000 -3.322400 -1.275300 -13.220900 -9.254400 -15.565000 -1.267500 -15.718600 0.368800 -15.484100 0.000000 0.000000 0.000000 7.125000 0.000000 -0.000000 8.019800 14.036300 5.894400
1.163494 17.360712 -33.557082 0.268996 4.313945 3.590938 0.000000 0.000000 0.000000 -24.285118 -8.205305 -9.265670 2.324241 9.511136 27.407678 1.187836 -9.679521 -19.629668 0.061884 1.603042 4.409796 0.000000 0.000000 0.000000 19.445864 -0.840766 -17.723160 -4.482058 -12.775420 38.533847 -1.487767 5.307996 -21.940181 -0.101950 -2.048284 5.639365 -5.267242 -3.211663 5.385086 -1.715615 -4.617926 0.723173 1.486528 -2.265534 -1.994024 -2.920115 -9.152897 -9.221561 11.385567 -13.293452 8.836832 2.953560 -5.985565 5.152362 0.000000 0.000000 0.000000 7.496924 5.841591 -17.128397 17.473015 -27.477065 4.303384 5.387490 8.162695 -41.590752 0.000000 0.000000 0.000000 -7.125000 0.000000 0.000000 -42.252407 67.087301 24.182476 0.000000 0.000000 0.000000 -3.245937 -1.105707 -13.008413 -9.275502 -15.598346 -1.273173 -15.870318 -0.012623 -15.398405 0.000000 0.000000 0.000000 7.125000 0.000000 0.000000 7.916303 14.109912 5.804352
1.156337 17.356774 -33.554439 0.209388 4.151893 3.573267 0.000000 0.000000 0.000000 -24.191410 -8.091677 -9.328723 2.339874 9.540795 27.502123 1.211772 -9.547346 -19.803578 0.059700 1.557499 4.284542 0.000000 0.000000 0.000000 19.520058 -0.690007 -17.313698 -4.340844 -12.600302 37.890612 -1.472863 5.068228 -21.852421 -0.068513 -1.686295 4.639553 -5.226876 -3.112900 5.343884 -1.664476 -4.481495 0.700935 1.507159 -2.197389 -2.001484 -2.936482 -9.173101 -8.980112 11.258044 -13.258671 8.467848 2.938520 -6.000771 4.986746 0.000000 0.000000 0.000000 7.421254 5.872989 -16.790908 17.317495 -27.274361 4.231779 5.396174 8.351180 -42.219866 0.000000 0.000000 0.000000 -7.125000 0.000000 0.000000 -43.328026 67.534618 25.319063 0.000000 0.000000 0.000000 -3.236759 -1.004176 -13.117934 -9.217982 -15.507106 -1.257770 -15.833682 -0.249580 -15.579378 0.000000 0.000000 0.000000 7.125000 0.000000 0.000000 7.944058 13.928294 5.856046
1.147593 17.349520 -33.549783 0.147475 3.940116 3.575731 0.000000 0.000000 0.000000 -24.075921 -7.943308 -9.386791 2.348620 9.557292 27.554722 1.235638 -9.604795 -19.996729 0.061418 1.574090 4.330449 0.000000 0.000000 0.000000 19.625663 -0.444756 -16.899351 -4.206881 -12.430414 37.272595 -1.444966 4.431405 -21.711284 -0.071261 -1.720647 4.734224 -5.172009 -3.014910 5.233233 -1.621271 -4.340103 0.695636 1.506341 -2.128614 -1.954418 -2.914088 -9.141993 -8.857450 11.067781 -13.160343 8.172450 2.898020 -5.979315 4.852410 0.000000 0.000000 0.000000 7.404642 5.969227 -16.592833 17.263483 -27.203767 4.207135 4.905457 7.883412 -42.332845 0.000000 0.000000 0.000000 -7.125000 0.000000 0.000000 -44.001981 67.464023 25.701995 0.000000 0.000000 0.000000 -3.162689 -0.952178 -13.452862 -9.195905 -15.472147 -1.251859 -15.548834 -0.118044 -15.690149 0.000000 0.000000 0.000000 7.125000 0.000000 0.000000 8.137334 13.841631 6.016427
1.146982 17.348859 -33.544366 0.209933 3.777413 3.651848 0.000000 0.000000 0.000000 -24.138517 -7.822004 -9.409550 2.350743 9.561216 27.567302 1.259705 -9.529917 -20.176565 0.040395 1.260187 3.465567 0.000000 0.000000 0.000000 19.525624 -0.416580 -16.629423 -4.092883 -12.282825 36.740211 -1.450914 4.967856 -21.694498 -0.112838 -2.148776 5.917607 -5.102941 -2.978900 5.037932 -1.623938 -4.276814 0.665511 1.451048 -2.099155 -1.885647 -2.920040 -9.076894 -8.970635 10.819892 -13.045317 8.230669 2.828974 -5.930348 4.863244 0.000000 0.000000 0.000000 7.386918 5.971615 -16.330029 17.019504 -26.883238 4.096302 5.412038 8.089469 -41.264118 0.000000 0.000000 0.000000 -7.125000 0.000000 0.000000 -41.691480 66.856328 23.611004 0.000000 0.000000 0.000000 -3.148498 -0.864262 -13.383948 -9.172198 -15.434441 -1.245541 -15.291768 -0.254844 -16.058470 0.000000 0.000000 0.000000 7.125000 0.000000 0.000000 8.315734 13.490349 6.213741
